<?xml version="1.0" encoding="UTF-8" standalone="no"?>
<svg
   version="1.1"
   style="fill:none;stroke:#000;stroke-width: 2px"
   viewBox="0 0 1565 315"
   width="100%"
   height="50%"
   sodipodi:docname="CFB_Encryption.svg"
   inkscape:version="1.3.2 (091e20e, 2023-11-25, custom)"
   id="svg7"
   xmlns:inkscape="http://www.inkscape.org/namespaces/inkscape"
   xmlns:sodipodi="http://sodipodi.sourceforge.net/DTD/sodipodi-0.dtd"
   xmlns="http://www.w3.org/2000/svg"
   xmlns:svg="http://www.w3.org/2000/svg"
   xmlns:rdf="http://www.w3.org/1999/02/22-rdf-syntax-ns#"
   xmlns:cc="http://creativecommons.org/ns#"
   xmlns:dc="http://purl.org/dc/elements/1.1/">
  <sodipodi:namedview
     id="namedview6"
     pagecolor="#505050"
     bordercolor="#eeeeee"
     borderopacity="1"
     inkscape:showpageshadow="0"
     inkscape:pageopacity="0"
     inkscape:pagecheckerboard="0"
     inkscape:deskcolor="#505050"
     inkscape:zoom="2"
     inkscape:cx="231"
     inkscape:cy="136.25"
     inkscape:window-width="1920"
     inkscape:window-height="1017"
     inkscape:window-x="-8"
     inkscape:window-y="-8"
     inkscape:window-maximized="1"
     inkscape:current-layer="g136"
     showgrid="true"
     showguides="false">
    <inkscape:grid
       id="grid6"
       units="px"
       originx="0"
       originy="0"
       spacingx="1"
       spacingy="1"
       empcolor="#0099e5"
       empopacity="0.30196078"
       color="#0099e5"
       opacity="0.14902"
       empspacing="5"
       dotted="false"
       gridanglex="30"
       gridanglez="30"
       visible="true"
       snapvisiblegridlinesonly="true" />
  </sodipodi:namedview>
  <title
     id="title1">Шифрование в режиме электронной кодовой книги</title>
  <style
     type="text/css"
     id="style1">
	text {text-anchor:middle; stroke:none;fill:#ffffff; font-family: Helvetica; font-size: 22px;}
	.arrow {marker-end: url(#cap);}
	path {stroke:white}
	rect {stroke:white}
	</style>
  <defs
     id="defs1">
    <marker
       id="cap"
       orient="auto"
       markerWidth="25"
       markerHeight="14"
       refY="3">
      <path
         style="stroke:none;fill:white;"
         d="m 0 0 v 6 l 9 -3 z"
         id="path1" />
    </marker>
  </defs>
  <g
     id="stage"
     transform="translate(-765,-5.1563873)">
    <text
       x="250.56006"
       y="36.904434"
       id="text1">IV</text>
    <text
       x="63.365723"
       y="252.91518"
       id="text2">Ключ</text>
    <text
       x="252.0918"
       y="151.84438"
       id="text5"><tspan
         sodipodi:role="line"
         id="tspan7"
         x="252.0918"
         y="151.84438">Шифрование</tspan><tspan
         sodipodi:role="line"
         id="tspan8"
         x="252.0918"
         y="179.34438" /></text>
    <path
       id="path6"
       d="m 3.5,202.15639 h 120 v 30 H 3.5 Z m 30,0 v 30 m 30,0 v -30 m 30,0 v 30" />
    <path
       id="path5"
       d="m 63.499999,147.15638 v 54.00001"
       style="stroke-width:2.00002px" />
    <path
       id="path8"
       d="m 191.5,46.156387 h 120 v 30 h -120 z m 30,0 v 30 m 30,0 v -30 m 30,0 v 30" />
    <rect
       style="fill:#ffffff;fill-opacity:0;stroke:#ffffff;stroke-width:2;stroke-dasharray:none"
       id="rect9"
       width="198"
       height="58.000004"
       x="151.5"
       y="116.15639" />
    <path
       sodipodi:type="star"
       style="fill:#ffffff;fill-opacity:0.980099;stroke:#ffffff;stroke-width:4.2701;stroke-dasharray:none"
       id="path10"
       inkscape:flatsided="false"
       sodipodi:sides="3"
       sodipodi:cx="54"
       sodipodi:cy="89"
       sodipodi:r1="9.5"
       sodipodi:r2="4.75"
       sodipodi:arg1="-1.5707963"
       sodipodi:arg2="-0.52359878"
       inkscape:rounded="0"
       inkscape:randomized="0"
       d="m 54,79.5 4.113621,7.125 4.11362,7.125 -8.227241,0 -8.227241,0 4.11362,-7.125 z"
       transform="matrix(0,0.9062407,-0.96828119,0,223.34369,97.219392)"
       inkscape:transform-center-x="-1.1498321"
       inkscape:transform-center-y="-3.3529102e-06" />
    <path
       id="path5-1"
       d="M 130.49999,146.15639 H 62.5"
       style="fill:none;stroke:#ffffff;stroke-width:2px" />
    <path
       id="path5-7"
       d="m 251.5,77.156386 v 18"
       style="fill:none;stroke:#ffffff;stroke-width:2px" />
    <path
       sodipodi:type="star"
       style="fill:#ffffff;fill-opacity:0.980099;stroke:#ffffff;stroke-width:4.2701;stroke-dasharray:none"
       id="path10-3"
       inkscape:flatsided="false"
       sodipodi:sides="3"
       sodipodi:cx="54"
       sodipodi:cy="89"
       sodipodi:r1="9.5"
       sodipodi:r2="4.75"
       sodipodi:arg1="-1.5707963"
       sodipodi:arg2="-0.52359878"
       inkscape:rounded="0"
       inkscape:randomized="0"
       d="m 54,79.5 4.113621,7.125 4.11362,7.125 -8.227241,0 -8.227241,0 4.11362,-7.125 z"
       transform="matrix(-0.9062407,0,0,-0.96828119,300.437,188.00008)"
       inkscape:transform-center-y="1.1498327"
       inkscape:transform-center-x="-2.3529102e-06" />
    <path
       id="path11"
       d="m 251.5,175.15639 v 18"
       style="fill:none;stroke:#ffffff;stroke-width:2px" />
    <path
       sodipodi:type="star"
       style="fill:#ffffff;fill-opacity:0.980099;stroke:#ffffff;stroke-width:4.2701;stroke-dasharray:none"
       id="path12"
       inkscape:flatsided="false"
       sodipodi:sides="3"
       sodipodi:cx="54"
       sodipodi:cy="89"
       sodipodi:r1="9.5"
       sodipodi:r2="4.75"
       sodipodi:arg1="-1.5707963"
       sodipodi:arg2="-0.52359878"
       inkscape:rounded="0"
       inkscape:randomized="0"
       d="m 54,79.5 4.113621,7.125 4.11362,7.125 -8.227241,0 -8.227241,0 4.11362,-7.125 z"
       transform="matrix(-0.9062407,0,0,-0.96828119,300.437,286.00008)"
       inkscape:transform-center-y="1.1498327"
       inkscape:transform-center-x="-2.3529102e-06" />
    <path
       id="path13"
       d="m 191.5,314.15639 h 120 v 30 h -120 z m 30,0 v 30 m 30,0 v -30 m 30,0 v 30" />
    <text
       x="251.16699"
       y="365.17297"
       id="text13">Закрытый текст</text>
    <ellipse
       style="fill:#ffffff;fill-opacity:0;stroke:#ffffff;stroke-width:2.00001;stroke-dasharray:none"
       id="path2"
       cx="251.5"
       cy="234.15639"
       rx="19.999994"
       ry="20" />
    <path
       id="path4"
       d="m 251.5,215.15639 v 37.99999"
       style="fill:none;stroke:#ffffff;stroke-width:2px" />
    <path
       id="path16"
       d="m 272.5,234.15637 h -42"
       style="fill:none;stroke:#ffffff;stroke-width:1.99999px" />
    <path
       id="path11-9"
       d="m 251.5,255.15639 v 38"
       style="fill:none;stroke:#ffffff;stroke-width:2px" />
    <path
       sodipodi:type="star"
       style="fill:#ffffff;fill-opacity:0.980099;stroke:#ffffff;stroke-width:4.2701;stroke-dasharray:none"
       id="path12-5"
       inkscape:flatsided="false"
       sodipodi:sides="3"
       sodipodi:cx="54"
       sodipodi:cy="89"
       sodipodi:r1="9.5"
       sodipodi:r2="4.75"
       sodipodi:arg1="-1.5707963"
       sodipodi:arg2="-0.52359878"
       inkscape:rounded="0"
       inkscape:randomized="0"
       d="m 54,79.5 4.113621,7.125 4.11362,7.125 -8.227241,0 -8.227241,0 4.11362,-7.125 z"
       transform="matrix(-0.9062407,0,0,-0.96828119,300.24416,386.00008)"
       inkscape:transform-center-y="1.1498327"
       inkscape:transform-center-x="-2.3529102e-06" />
    <path
       id="path3"
       d="m 3.5,314.15639 h 120 v 30 H 3.5 Z m 30,0 v 30 m 30,0 v -30 m 30,0 v 30" />
    <text
       x="63.166992"
       y="305.18372"
       id="text1-3"
       style="font-size:22px;font-family:Helvetica;text-anchor:middle;fill:#ffffff;stroke:none;stroke-width:2px">Открытый текст</text>
    <path
       id="path5-1-8"
       d="m 158.50002,329.1564 h -34"
       style="fill:none;stroke:#ffffff;stroke-width:2.00001px" />
    <path
       sodipodi:type="star"
       style="fill:#ffffff;fill-opacity:0.980099;stroke:#ffffff;stroke-width:4.2701;stroke-dasharray:none"
       id="path10-2"
       inkscape:flatsided="false"
       sodipodi:sides="3"
       sodipodi:cx="54"
       sodipodi:cy="89"
       sodipodi:r1="9.5"
       sodipodi:r2="4.75"
       sodipodi:arg1="-1.5707963"
       sodipodi:arg2="-0.52359878"
       inkscape:rounded="0"
       inkscape:randomized="0"
       d="m 54,79.5 4.113621,7.125 4.11362,7.125 -8.227241,0 -8.227241,0 4.11362,-7.125 z"
       transform="matrix(0,0.9062407,-0.96828119,0,303.34369,185.21939)"
       inkscape:transform-center-x="-1.1498321"
       inkscape:transform-center-y="-3.3529102e-06" />
    <path
       id="path47"
       d="m 159.49995,233.15639 v 96.99998"
       style="fill:none;stroke:#ffffff;stroke-width:2px" />
    <path
       id="path48"
       d="M 210.49998,234.15638 H 160.49995"
       style="fill:none;stroke:#ffffff;stroke-width:2.00001px" />
    <path
       id="path69"
       d="m 384.5,234.15639 h -112"
       style="fill:none;stroke:#ffffff;stroke-width:2px" />
    <path
       id="path70"
       d="M 385.50007,77.156396 V 235.15639"
       style="fill:none;stroke:#ffffff;stroke-width:2px" />
    <path
       id="path71"
       d="m 672.50003,76.156392 h -288"
       style="fill:none;stroke:#ffffff;stroke-width:2px" />
  </g>
  <metadata
     id="metadata6">
    <rdf:RDF>
      <cc:Work
         rdf:about="">
        <dc:title>Шифрование в режиме электронной кодовой книги</dc:title>
      </cc:Work>
    </rdf:RDF>
  </metadata>
  <g
     id="g94"
     transform="translate(-345.00044,-5.1563873)">
    <text
       x="63.365723"
       y="252.91518"
       id="text72">Ключ</text>
    <text
       x="252.0918"
       y="151.84438"
       id="text73"><tspan
         sodipodi:role="line"
         id="tspan72"
         x="252.0918"
         y="151.84438">Шифрование</tspan><tspan
         sodipodi:role="line"
         id="tspan73"
         x="252.0918"
         y="179.34438" /></text>
    <path
       id="path73"
       d="m 3.5,202.15639 h 120 v 30 H 3.5 Z m 30,0 v 30 m 30,0 v -30 m 30,0 v 30" />
    <path
       id="path74"
       d="m 63.499999,147.15638 v 54.00001"
       style="stroke-width:2.00002px" />
    <rect
       style="fill:#ffffff;fill-opacity:0;stroke:#ffffff;stroke-width:2;stroke-dasharray:none"
       id="rect75"
       width="198"
       height="58.000004"
       x="151.5"
       y="116.15639" />
    <path
       sodipodi:type="star"
       style="fill:#ffffff;fill-opacity:0.980099;stroke:#ffffff;stroke-width:4.2701;stroke-dasharray:none"
       id="path76"
       inkscape:flatsided="false"
       sodipodi:sides="3"
       sodipodi:cx="54"
       sodipodi:cy="89"
       sodipodi:r1="9.5"
       sodipodi:r2="4.75"
       sodipodi:arg1="-1.5707963"
       sodipodi:arg2="-0.52359878"
       inkscape:rounded="0"
       inkscape:randomized="0"
       d="m 54,79.5 4.113621,7.125 4.11362,7.125 -8.227241,0 -8.227241,0 4.11362,-7.125 z"
       transform="matrix(0,0.9062407,-0.96828119,0,223.34369,97.219392)"
       inkscape:transform-center-x="-1.1498321"
       inkscape:transform-center-y="-3.3529102e-06" />
    <path
       id="path77"
       d="M 130.49999,146.15639 H 62.5"
       style="fill:none;stroke:#ffffff;stroke-width:2px" />
    <path
       id="path78"
       d="m 251.5,77.156386 v 18"
       style="fill:none;stroke:#ffffff;stroke-width:2px" />
    <path
       sodipodi:type="star"
       style="fill:#ffffff;fill-opacity:0.980099;stroke:#ffffff;stroke-width:4.2701;stroke-dasharray:none"
       id="path79"
       inkscape:flatsided="false"
       sodipodi:sides="3"
       sodipodi:cx="54"
       sodipodi:cy="89"
       sodipodi:r1="9.5"
       sodipodi:r2="4.75"
       sodipodi:arg1="-1.5707963"
       sodipodi:arg2="-0.52359878"
       inkscape:rounded="0"
       inkscape:randomized="0"
       d="m 54,79.5 4.113621,7.125 4.11362,7.125 -8.227241,0 -8.227241,0 4.11362,-7.125 z"
       transform="matrix(-0.9062407,0,0,-0.96828119,300.437,188.00008)"
       inkscape:transform-center-y="1.1498327"
       inkscape:transform-center-x="-2.3529102e-06" />
    <path
       id="path80"
       d="m 251.5,175.15639 v 18"
       style="fill:none;stroke:#ffffff;stroke-width:2px" />
    <path
       sodipodi:type="star"
       style="fill:#ffffff;fill-opacity:0.980099;stroke:#ffffff;stroke-width:4.2701;stroke-dasharray:none"
       id="path81"
       inkscape:flatsided="false"
       sodipodi:sides="3"
       sodipodi:cx="54"
       sodipodi:cy="89"
       sodipodi:r1="9.5"
       sodipodi:r2="4.75"
       sodipodi:arg1="-1.5707963"
       sodipodi:arg2="-0.52359878"
       inkscape:rounded="0"
       inkscape:randomized="0"
       d="m 54,79.5 4.113621,7.125 4.11362,7.125 -8.227241,0 -8.227241,0 4.11362,-7.125 z"
       transform="matrix(-0.9062407,0,0,-0.96828119,300.437,286.00008)"
       inkscape:transform-center-y="1.1498327"
       inkscape:transform-center-x="-2.3529102e-06" />
    <path
       id="path82"
       d="m 191.5,314.15639 h 120 v 30 h -120 z m 30,0 v 30 m 30,0 v -30 m 30,0 v 30" />
    <text
       x="251.16699"
       y="365.17297"
       id="text82">Закрытый текст</text>
    <ellipse
       style="fill:#ffffff;fill-opacity:0;stroke:#ffffff;stroke-width:2.00001;stroke-dasharray:none"
       id="ellipse82"
       cx="251.5"
       cy="234.15639"
       rx="19.999994"
       ry="20" />
    <path
       id="path83"
       d="m 251.5,215.15639 v 37.99999"
       style="fill:none;stroke:#ffffff;stroke-width:2px" />
    <path
       id="path84"
       d="m 272.5,234.15637 h -42"
       style="fill:none;stroke:#ffffff;stroke-width:1.99999px" />
    <path
       id="path85"
       d="m 251.5,255.15639 v 38"
       style="fill:none;stroke:#ffffff;stroke-width:2px" />
    <path
       sodipodi:type="star"
       style="fill:#ffffff;fill-opacity:0.980099;stroke:#ffffff;stroke-width:4.2701;stroke-dasharray:none"
       id="path86"
       inkscape:flatsided="false"
       sodipodi:sides="3"
       sodipodi:cx="54"
       sodipodi:cy="89"
       sodipodi:r1="9.5"
       sodipodi:r2="4.75"
       sodipodi:arg1="-1.5707963"
       sodipodi:arg2="-0.52359878"
       inkscape:rounded="0"
       inkscape:randomized="0"
       d="m 54,79.5 4.113621,7.125 4.11362,7.125 -8.227241,0 -8.227241,0 4.11362,-7.125 z"
       transform="matrix(-0.9062407,0,0,-0.96828119,300.24416,386.00008)"
       inkscape:transform-center-y="1.1498327"
       inkscape:transform-center-x="-2.3529102e-06" />
    <path
       id="path87"
       d="m 3.5,314.15639 h 120 v 30 H 3.5 Z m 30,0 v 30 m 30,0 v -30 m 30,0 v 30" />
    <text
       x="63.166992"
       y="305.18372"
       id="text87"
       style="font-size:22px;font-family:Helvetica;text-anchor:middle;fill:#ffffff;stroke:none;stroke-width:2px">Открытый текст</text>
    <path
       id="path88"
       d="m 158.50002,329.1564 h -34"
       style="fill:none;stroke:#ffffff;stroke-width:2.00001px" />
    <path
       sodipodi:type="star"
       style="fill:#ffffff;fill-opacity:0.980099;stroke:#ffffff;stroke-width:4.2701;stroke-dasharray:none"
       id="path89"
       inkscape:flatsided="false"
       sodipodi:sides="3"
       sodipodi:cx="54"
       sodipodi:cy="89"
       sodipodi:r1="9.5"
       sodipodi:r2="4.75"
       sodipodi:arg1="-1.5707963"
       sodipodi:arg2="-0.52359878"
       inkscape:rounded="0"
       inkscape:randomized="0"
       d="m 54,79.5 4.113621,7.125 4.11362,7.125 -8.227241,0 -8.227241,0 4.11362,-7.125 z"
       transform="matrix(0,0.9062407,-0.96828119,0,303.34369,185.21939)"
       inkscape:transform-center-x="-1.1498321"
       inkscape:transform-center-y="-3.3529102e-06" />
    <path
       id="path90"
       d="m 159.49995,233.15639 v 96.99998"
       style="fill:none;stroke:#ffffff;stroke-width:2px" />
    <path
       id="path91"
       d="M 210.49998,234.15638 H 160.49995"
       style="fill:none;stroke:#ffffff;stroke-width:2.00001px" />
    <path
       id="path92"
       d="m 384.5,234.15639 h -112"
       style="fill:none;stroke:#ffffff;stroke-width:2px" />
    <path
       id="path93"
       d="M 385.50007,77.156396 V 235.15639"
       style="fill:none;stroke:#ffffff;stroke-width:2px" />
    <path
       id="path94"
       d="m 672.50003,76.156392 h -288"
       style="fill:none;stroke:#ffffff;stroke-width:2px" />
  </g>
  <g
     id="g115"
     transform="translate(75.647563,-5.1563873)">
    <text
       x="63.365723"
       y="252.91518"
       id="text94">Ключ</text>
    <text
       x="252.0918"
       y="151.84438"
       id="text95"><tspan
         sodipodi:role="line"
         id="tspan94"
         x="252.0918"
         y="151.84438">Шифрование</tspan><tspan
         sodipodi:role="line"
         id="tspan95"
         x="252.0918"
         y="179.34438" /></text>
    <path
       id="path95"
       d="m 3.5,202.15639 h 120 v 30 H 3.5 Z m 30,0 v 30 m 30,0 v -30 m 30,0 v 30" />
    <path
       id="path96"
       d="m 63.499999,147.15638 v 54.00001"
       style="stroke-width:2.00002px" />
    <rect
       style="fill:#ffffff;fill-opacity:0;stroke:#ffffff;stroke-width:2;stroke-dasharray:none"
       id="rect96"
       width="198"
       height="58.000004"
       x="151.5"
       y="116.15639" />
    <path
       sodipodi:type="star"
       style="fill:#ffffff;fill-opacity:0.980099;stroke:#ffffff;stroke-width:4.2701;stroke-dasharray:none"
       id="path97"
       inkscape:flatsided="false"
       sodipodi:sides="3"
       sodipodi:cx="54"
       sodipodi:cy="89"
       sodipodi:r1="9.5"
       sodipodi:r2="4.75"
       sodipodi:arg1="-1.5707963"
       sodipodi:arg2="-0.52359878"
       inkscape:rounded="0"
       inkscape:randomized="0"
       d="m 54,79.5 4.113621,7.125 4.11362,7.125 -8.227241,0 -8.227241,0 4.11362,-7.125 z"
       transform="matrix(0,0.9062407,-0.96828119,0,223.34369,97.219392)"
       inkscape:transform-center-x="-1.1498321"
       inkscape:transform-center-y="-3.3529102e-06" />
    <path
       id="path98"
       d="M 130.49999,146.15639 H 62.5"
       style="fill:none;stroke:#ffffff;stroke-width:2px" />
    <path
       id="path99"
       d="m 251.5,77.156386 v 18"
       style="fill:none;stroke:#ffffff;stroke-width:2px" />
    <path
       sodipodi:type="star"
       style="fill:#ffffff;fill-opacity:0.980099;stroke:#ffffff;stroke-width:4.2701;stroke-dasharray:none"
       id="path100"
       inkscape:flatsided="false"
       sodipodi:sides="3"
       sodipodi:cx="54"
       sodipodi:cy="89"
       sodipodi:r1="9.5"
       sodipodi:r2="4.75"
       sodipodi:arg1="-1.5707963"
       sodipodi:arg2="-0.52359878"
       inkscape:rounded="0"
       inkscape:randomized="0"
       d="m 54,79.5 4.113621,7.125 4.11362,7.125 -8.227241,0 -8.227241,0 4.11362,-7.125 z"
       transform="matrix(-0.9062407,0,0,-0.96828119,300.437,188.00008)"
       inkscape:transform-center-y="1.1498327"
       inkscape:transform-center-x="-2.3529102e-06" />
    <path
       id="path101"
       d="m 251.5,175.15639 v 18"
       style="fill:none;stroke:#ffffff;stroke-width:2px" />
    <path
       sodipodi:type="star"
       style="fill:#ffffff;fill-opacity:0.980099;stroke:#ffffff;stroke-width:4.2701;stroke-dasharray:none"
       id="path102"
       inkscape:flatsided="false"
       sodipodi:sides="3"
       sodipodi:cx="54"
       sodipodi:cy="89"
       sodipodi:r1="9.5"
       sodipodi:r2="4.75"
       sodipodi:arg1="-1.5707963"
       sodipodi:arg2="-0.52359878"
       inkscape:rounded="0"
       inkscape:randomized="0"
       d="m 54,79.5 4.113621,7.125 4.11362,7.125 -8.227241,0 -8.227241,0 4.11362,-7.125 z"
       transform="matrix(-0.9062407,0,0,-0.96828119,300.437,286.00008)"
       inkscape:transform-center-y="1.1498327"
       inkscape:transform-center-x="-2.3529102e-06" />
    <path
       id="path103"
       d="m 191.5,314.15639 h 120 v 30 h -120 z m 30,0 v 30 m 30,0 v -30 m 30,0 v 30" />
    <text
       x="251.16699"
       y="365.17297"
       id="text103">Закрытый текст</text>
    <ellipse
       style="fill:#ffffff;fill-opacity:0;stroke:#ffffff;stroke-width:2.00001;stroke-dasharray:none"
       id="ellipse103"
       cx="251.5"
       cy="234.15639"
       rx="19.999994"
       ry="20" />
    <path
       id="path104"
       d="m 251.5,215.15639 v 37.99999"
       style="fill:none;stroke:#ffffff;stroke-width:2px" />
    <path
       id="path105"
       d="m 272.5,234.15637 h -42"
       style="fill:none;stroke:#ffffff;stroke-width:1.99999px" />
    <path
       id="path106"
       d="m 251.5,255.15639 v 38"
       style="fill:none;stroke:#ffffff;stroke-width:2px" />
    <path
       sodipodi:type="star"
       style="fill:#ffffff;fill-opacity:0.980099;stroke:#ffffff;stroke-width:4.2701;stroke-dasharray:none"
       id="path107"
       inkscape:flatsided="false"
       sodipodi:sides="3"
       sodipodi:cx="54"
       sodipodi:cy="89"
       sodipodi:r1="9.5"
       sodipodi:r2="4.75"
       sodipodi:arg1="-1.5707963"
       sodipodi:arg2="-0.52359878"
       inkscape:rounded="0"
       inkscape:randomized="0"
       d="m 54,79.5 4.113621,7.125 4.11362,7.125 -8.227241,0 -8.227241,0 4.11362,-7.125 z"
       transform="matrix(-0.9062407,0,0,-0.96828119,300.24416,386.00008)"
       inkscape:transform-center-y="1.1498327"
       inkscape:transform-center-x="-2.3529102e-06" />
    <path
       id="path108"
       d="m 3.5,314.15639 h 120 v 30 H 3.5 Z m 30,0 v 30 m 30,0 v -30 m 30,0 v 30" />
    <text
       x="63.166992"
       y="305.18372"
       id="text108"
       style="font-size:22px;font-family:Helvetica;text-anchor:middle;fill:#ffffff;stroke:none;stroke-width:2px">Открытый текст</text>
    <path
       id="path109"
       d="m 158.50002,329.1564 h -34"
       style="fill:none;stroke:#ffffff;stroke-width:2.00001px" />
    <path
       sodipodi:type="star"
       style="fill:#ffffff;fill-opacity:0.980099;stroke:#ffffff;stroke-width:4.2701;stroke-dasharray:none"
       id="path110"
       inkscape:flatsided="false"
       sodipodi:sides="3"
       sodipodi:cx="54"
       sodipodi:cy="89"
       sodipodi:r1="9.5"
       sodipodi:r2="4.75"
       sodipodi:arg1="-1.5707963"
       sodipodi:arg2="-0.52359878"
       inkscape:rounded="0"
       inkscape:randomized="0"
       d="m 54,79.5 4.113621,7.125 4.11362,7.125 -8.227241,0 -8.227241,0 4.11362,-7.125 z"
       transform="matrix(0,0.9062407,-0.96828119,0,303.34369,185.21939)"
       inkscape:transform-center-x="-1.1498321"
       inkscape:transform-center-y="-3.3529102e-06" />
    <path
       id="path111"
       d="m 159.49995,233.15639 v 96.99998"
       style="fill:none;stroke:#ffffff;stroke-width:2px" />
    <path
       id="path112"
       d="M 210.49998,234.15638 H 160.49995"
       style="fill:none;stroke:#ffffff;stroke-width:2.00001px" />
    <path
       id="path113"
       d="m 384.5,234.15639 h -112"
       style="fill:none;stroke:#ffffff;stroke-width:2px" />
    <path
       id="path114"
       d="M 385.50007,77.156396 V 235.15639"
       style="fill:none;stroke:#ffffff;stroke-width:2px" />
    <path
       id="path115"
       d="m 672.50003,76.156392 h -288"
       style="fill:none;stroke:#ffffff;stroke-width:2px" />
  </g>
  <g
     id="g136"
     transform="translate(496.29556,-5.1563873)">
    <text
       x="63.365723"
       y="252.91518"
       id="text115">Ключ</text>
    <text
       x="252.0918"
       y="151.84438"
       id="text116"><tspan
         sodipodi:role="line"
         id="tspan115"
         x="252.0918"
         y="151.84438">Шифрование</tspan><tspan
         sodipodi:role="line"
         id="tspan116"
         x="252.0918"
         y="179.34438" /></text>
    <path
       id="path116"
       d="m 3.5,202.15639 h 120 v 30 H 3.5 Z m 30,0 v 30 m 30,0 v -30 m 30,0 v 30" />
    <path
       id="path117"
       d="m 63.499999,147.15638 v 54.00001"
       style="stroke-width:2.00002px" />
    <rect
       style="fill:#ffffff;fill-opacity:0;stroke:#ffffff;stroke-width:2;stroke-dasharray:none"
       id="rect117"
       width="198"
       height="58.000004"
       x="151.5"
       y="116.15639" />
    <path
       sodipodi:type="star"
       style="fill:#ffffff;fill-opacity:0.980099;stroke:#ffffff;stroke-width:4.2701;stroke-dasharray:none"
       id="path118"
       inkscape:flatsided="false"
       sodipodi:sides="3"
       sodipodi:cx="54"
       sodipodi:cy="89"
       sodipodi:r1="9.5"
       sodipodi:r2="4.75"
       sodipodi:arg1="-1.5707963"
       sodipodi:arg2="-0.52359878"
       inkscape:rounded="0"
       inkscape:randomized="0"
       d="m 54,79.5 4.113621,7.125 4.11362,7.125 -8.227241,0 -8.227241,0 4.11362,-7.125 z"
       transform="matrix(0,0.9062407,-0.96828119,0,223.34369,97.219392)"
       inkscape:transform-center-x="-1.1498321"
       inkscape:transform-center-y="-3.3529102e-06" />
    <path
       id="path119"
       d="M 130.49999,146.15639 H 62.5"
       style="fill:none;stroke:#ffffff;stroke-width:2px" />
    <path
       id="path120"
       d="m 251.5,77.156386 v 18"
       style="fill:none;stroke:#ffffff;stroke-width:2px" />
    <path
       sodipodi:type="star"
       style="fill:#ffffff;fill-opacity:0.980099;stroke:#ffffff;stroke-width:4.2701;stroke-dasharray:none"
       id="path121"
       inkscape:flatsided="false"
       sodipodi:sides="3"
       sodipodi:cx="54"
       sodipodi:cy="89"
       sodipodi:r1="9.5"
       sodipodi:r2="4.75"
       sodipodi:arg1="-1.5707963"
       sodipodi:arg2="-0.52359878"
       inkscape:rounded="0"
       inkscape:randomized="0"
       d="m 54,79.5 4.113621,7.125 4.11362,7.125 -8.227241,0 -8.227241,0 4.11362,-7.125 z"
       transform="matrix(-0.9062407,0,0,-0.96828119,300.437,188.00008)"
       inkscape:transform-center-y="1.1498327"
       inkscape:transform-center-x="-2.3529102e-06" />
    <path
       id="path122"
       d="m 251.5,175.15639 v 18"
       style="fill:none;stroke:#ffffff;stroke-width:2px" />
    <path
       sodipodi:type="star"
       style="fill:#ffffff;fill-opacity:0.980099;stroke:#ffffff;stroke-width:4.2701;stroke-dasharray:none"
       id="path123"
       inkscape:flatsided="false"
       sodipodi:sides="3"
       sodipodi:cx="54"
       sodipodi:cy="89"
       sodipodi:r1="9.5"
       sodipodi:r2="4.75"
       sodipodi:arg1="-1.5707963"
       sodipodi:arg2="-0.52359878"
       inkscape:rounded="0"
       inkscape:randomized="0"
       d="m 54,79.5 4.113621,7.125 4.11362,7.125 -8.227241,0 -8.227241,0 4.11362,-7.125 z"
       transform="matrix(-0.9062407,0,0,-0.96828119,300.437,286.00008)"
       inkscape:transform-center-y="1.1498327"
       inkscape:transform-center-x="-2.3529102e-06" />
    <path
       id="path124"
       d="m 191.5,314.15639 h 120 v 30 h -120 z m 30,0 v 30 m 30,0 v -30 m 30,0 v 30" />
    <text
       x="251.16699"
       y="365.17297"
       id="text124">Закрытый текст</text>
    <ellipse
       style="fill:#ffffff;fill-opacity:0;stroke:#ffffff;stroke-width:2.00001;stroke-dasharray:none"
       id="ellipse124"
       cx="251.5"
       cy="234.15639"
       rx="19.999994"
       ry="20" />
    <path
       id="path125"
       d="m 251.5,215.15639 v 37.99999"
       style="fill:none;stroke:#ffffff;stroke-width:2px" />
    <path
       id="path126"
       d="m 272.5,234.15637 h -42"
       style="fill:none;stroke:#ffffff;stroke-width:1.99999px" />
    <path
       id="path127"
       d="m 251.5,255.15639 v 38"
       style="fill:none;stroke:#ffffff;stroke-width:2px" />
    <path
       sodipodi:type="star"
       style="fill:#ffffff;fill-opacity:0.980099;stroke:#ffffff;stroke-width:4.2701;stroke-dasharray:none"
       id="path128"
       inkscape:flatsided="false"
       sodipodi:sides="3"
       sodipodi:cx="54"
       sodipodi:cy="89"
       sodipodi:r1="9.5"
       sodipodi:r2="4.75"
       sodipodi:arg1="-1.5707963"
       sodipodi:arg2="-0.52359878"
       inkscape:rounded="0"
       inkscape:randomized="0"
       d="m 54,79.5 4.113621,7.125 4.11362,7.125 -8.227241,0 -8.227241,0 4.11362,-7.125 z"
       transform="matrix(-0.9062407,0,0,-0.96828119,300.24416,386.00008)"
       inkscape:transform-center-y="1.1498327"
       inkscape:transform-center-x="-2.3529102e-06" />
    <path
       id="path129"
       d="m 3.5,314.15639 h 120 v 30 H 3.5 Z m 30,0 v 30 m 30,0 v -30 m 30,0 v 30" />
    <text
       x="63.166992"
       y="305.18372"
       id="text129"
       style="font-size:22px;font-family:Helvetica;text-anchor:middle;fill:#ffffff;stroke:none;stroke-width:2px">Открытый текст</text>
    <path
       id="path130"
       d="m 158.50002,329.1564 h -34"
       style="fill:none;stroke:#ffffff;stroke-width:2.00001px" />
    <path
       sodipodi:type="star"
       style="fill:#ffffff;fill-opacity:0.980099;stroke:#ffffff;stroke-width:4.2701;stroke-dasharray:none"
       id="path131"
       inkscape:flatsided="false"
       sodipodi:sides="3"
       sodipodi:cx="54"
       sodipodi:cy="89"
       sodipodi:r1="9.5"
       sodipodi:r2="4.75"
       sodipodi:arg1="-1.5707963"
       sodipodi:arg2="-0.52359878"
       inkscape:rounded="0"
       inkscape:randomized="0"
       d="m 54,79.5 4.113621,7.125 4.11362,7.125 -8.227241,0 -8.227241,0 4.11362,-7.125 z"
       transform="matrix(0,0.9062407,-0.96828119,0,303.34369,185.21939)"
       inkscape:transform-center-x="-1.1498321"
       inkscape:transform-center-y="-3.3529102e-06" />
    <path
       id="path132"
       d="m 159.49995,233.15639 v 96.99998"
       style="fill:none;stroke:#ffffff;stroke-width:2px" />
    <path
       id="path133"
       d="M 210.49998,234.15638 H 160.49995"
       style="fill:none;stroke:#ffffff;stroke-width:2.00001px" />
  </g>
</svg>
