<?xml version="1.0" encoding="UTF-8" standalone="no"?>
<svg
   version="1.1"
   style="fill:none;stroke:#000;stroke-width: 2px"
   width="1565"
   height="315"
   id="svg6"
   sodipodi:docname="ECB_Encryption_ru.svg"
   inkscape:version="1.3.2 (091e20e, 2023-11-25, custom)"
   xmlns:inkscape="http://www.inkscape.org/namespaces/inkscape"
   xmlns:sodipodi="http://sodipodi.sourceforge.net/DTD/sodipodi-0.dtd"
   xmlns:xlink="http://www.w3.org/1999/xlink"
   xmlns="http://www.w3.org/2000/svg"
   xmlns:svg="http://www.w3.org/2000/svg"
   xmlns:rdf="http://www.w3.org/1999/02/22-rdf-syntax-ns#"
   xmlns:cc="http://creativecommons.org/ns#"
   xmlns:dc="http://purl.org/dc/elements/1.1/">
  <sodipodi:namedview
     id="namedview6"
     pagecolor="#505050"
     bordercolor="#eeeeee"
     borderopacity="1"
     inkscape:showpageshadow="0"
     inkscape:pageopacity="0"
     inkscape:pagecheckerboard="0"
     inkscape:deskcolor="#505050"
     inkscape:zoom="5.5564356"
     inkscape:cx="96.374733"
     inkscape:cy="144.60709"
     inkscape:window-width="1920"
     inkscape:window-height="1017"
     inkscape:window-x="-8"
     inkscape:window-y="-8"
     inkscape:window-maximized="1"
     inkscape:current-layer="stage"
     showgrid="true">
    <inkscape:grid
       id="grid6"
       units="px"
       originx="0"
       originy="0"
       spacingx="1"
       spacingy="1"
       empcolor="#0099e5"
       empopacity="0.30196078"
       color="#0099e5"
       opacity="0.14901961"
       empspacing="5"
       dotted="false"
       gridanglex="30"
       gridanglez="30"
       visible="true"
       snapvisiblegridlinesonly="true" />
  </sodipodi:namedview>
  <title
     id="title1">Шифрование в режиме электронной кодовой книги</title>
  <style
     type="text/css"
     id="style1">
	text {text-anchor:middle; stroke:none;fill:#ffffff; font-family: Helvetica; font-size: 22px;}
	.arrow {marker-end: url(#cap);}
	path {stroke:white}
	rect {stroke:white}
	</style>
  <defs
     id="defs1">
    <marker
       id="cap"
       orient="auto"
       markerWidth="25"
       markerHeight="14"
       refY="3">
      <path
         style="stroke:none;fill:white;"
         d="m 0 0 v 6 l 9 -3 z"
         id="path1" />
    </marker>
  </defs>
  <g
     id="stage"
     transform="translate(35)">
    <text
       x="223.66701"
       y="39"
       id="text1">Открытый текст</text>
    <path
       id="cells"
       d="m 164,50 h 120 v 30 h -120 z m 30,0 v 30 m 30,0 V 50 m 30,0 v 30" />
    <path
       class="arrow"
       d="m 224,80 v 20"
       id="path2" />
    <text
       x="40.86573"
       y="40.922852"
       id="text2">Ключ</text>
    <path
       class="arrow"
       d="M 41,148 H 101"
       id="path3" />
    <rect
       x="119"
       y="118"
       width="210"
       height="60"
       id="rect3" />
    <text
       x="224"
       y="144"
       id="text3">Процедура</text>
    <text
       x="224"
       y="167"
       id="text4">шифрования</text>
    <path
       class="arrow"
       d="m 224,178 v 20"
       id="path4" />
    <use
       xlink:href="#cells"
       y="166"
       id="use4" />
    <text
       x="224"
       y="272"
       id="text5">Зашифрованный</text>
    <text
       x="224"
       y="295"
       id="text6">текст</text>
    <path
       id="path6"
       d="M -19,50 H 101 V 80 H -19 Z m 30,0 v 30 m 30,0 V 50 m 30,0 v 30" />
	<path
       id="path6"
       d="m 41,80 v 69" />
  </g>

   <text x="31" y="73" id="text2">00</text>
   <text x="61" y="73" id="text2">01</text>
   <text x="91" y="73" id="text2">02</text>
   <text x="121" y="73" id="text2">03</text>

   <text x="214" y="73" id="text2">04</text>
   <text x="244" y="73" id="text2">05</text>
   <text x="274" y="73" id="text2">06</text>
   <text x="304" y="73" id="text2">07</text>

   <text x="431" y="73" id="text2">08</text>
   <text x="461" y="73" id="text2">09</text>
   <text x="491" y="73" id="text2">0A</text>
   <text x="521" y="73" id="text2">0B</text>

   <text x="614" y="73" id="text2">0С</text>
   <text x="644" y="73" id="text2">0D</text>
   <text x="674" y="73" id="text2">0E</text>
   <text x="704" y="73" id="text2">0F</text>

   <text x="831" y="73" id="text2">10</text>
   <text x="861" y="73" id="text2">11</text>
   <text x="891" y="73" id="text2">12</text>
   <text x="921" y="73" id="text2">13</text>

   <text x="831" y="73" id="text2">10</text>
   <text x="861" y="73" id="text2">11</text>
   <text x="891" y="73" id="text2">12</text>
   <text x="921" y="73" id="text2">13</text>

   <text x="1014" y="73" id="text2">14</text>
   <text x="1044" y="73" id="text2">15</text>
   <text x="1074" y="73" id="text2">16</text>
   <text x="1104" y="73" id="text2">17</text>

   <text x="1231" y="73" id="text2">18</text>
   <text x="1261" y="73" id="text2">19</text>
   <text x="1291" y="73" id="text2">1A</text>
   <text x="1321" y="73" id="text2">1B</text>

   <text x="1414" y="73" id="text2">1C</text>
   <text x="1444" y="73" id="text2">1D</text>
   <text x="1474" y="73" id="text2">1E</text>
   <text x="1504" y="73" id="text2">1F</text>

   <text x="214" y="239" id="text2">20</text>
   <text x="244" y="239" id="text2">21</text>
   <text x="274" y="239" id="text2">22</text>
   <text x="304" y="239" id="text2">23</text>

   <text x="614" y="239" id="text2">24</text>
   <text x="644" y="239" id="text2">25</text>
   <text x="674" y="239" id="text2">26</text>
   <text x="704" y="239" id="text2">27</text>

   <text x="1014" y="239" id="text2">28</text>
   <text x="1044" y="239" id="text2">29</text>
   <text x="1074" y="239" id="text2">2A</text>
   <text x="1104" y="239" id="text2">2B</text>

   <text x="1414" y="239" id="text2">2C</text>
   <text x="1444" y="239" id="text2">2D</text>
   <text x="1474" y="239" id="text2">2E</text>
   <text x="1504" y="239" id="text2">2F</text>

  	<use xlink:href="#stage" x="400" />
	<use xlink:href="#stage" x="800" />
	<use xlink:href="#stage" x="1200" />
  <metadata
     id="metadata6">
    <rdf:RDF>
      <cc:Work
         rdf:about="">
        <dc:title>Шифрование в режиме электронной кодовой книги</dc:title>
      </cc:Work>
    </rdf:RDF>
  </metadata>
</svg>