<?xml version="1.0" encoding="UTF-8" standalone="no"?>
<svg
   version="1.1"
   style="fill:none;stroke:#000;stroke-width: 2px"
   viewBox="0 0 1565 315" 
   width="100%" 
   height="50%"
   sodipodi:docname="ECB_Encryption_ru.svg"
   inkscape:version="1.3.2 (091e20e, 2023-11-25, custom)"
   xmlns:inkscape="http://www.inkscape.org/namespaces/inkscape"
   xmlns:sodipodi="http://sodipodi.sourceforge.net/DTD/sodipodi-0.dtd"
   xmlns:xlink="http://www.w3.org/1999/xlink"
   xmlns="http://www.w3.org/2000/svg"
   xmlns:svg="http://www.w3.org/2000/svg"
   xmlns:rdf="http://www.w3.org/1999/02/22-rdf-syntax-ns#"
   xmlns:cc="http://creativecommons.org/ns#"
   xmlns:dc="http://purl.org/dc/elements/1.1/">
  <sodipodi:namedview
     id="namedview6"
     pagecolor="#505050"
     bordercolor="#eeeeee"
     borderopacity="1"
     inkscape:showpageshadow="0"
     inkscape:pageopacity="0"
     inkscape:pagecheckerboard="0"
     inkscape:deskcolor="#505050"
     inkscape:zoom="5.5564356"
     inkscape:cx="96.374733"
     inkscape:cy="144.60709"
     inkscape:window-width="1920"
     inkscape:window-height="1017"
     inkscape:window-x="-8"
     inkscape:window-y="-8"
     inkscape:window-maximized="1"
     inkscape:current-layer="stage"
     showgrid="true">
    <inkscape:grid
       id="grid6"
       units="px"
       originx="0"
       originy="0"
       spacingx="1"
       spacingy="1"
       empcolor="#0099e5"
       empopacity="0.30196078"
       color="#0099e5"
       opacity="0.14901961"
       empspacing="5"
       dotted="false"
       gridanglex="30"
       gridanglez="30"
       visible="true"
       snapvisiblegridlinesonly="true" />
  </sodipodi:namedview>
  <title
     id="title1">Шифрование в режиме электронной кодовой книги</title>
  <style
     type="text/css"
     id="style1">
	text {text-anchor:middle; stroke:none;fill:#ffffff; font-family: Helvetica; font-size: 22px;}
	.arrow {marker-end: url(#cap);}
	path {stroke:white}
	rect {stroke:white}
	</style>
  <defs
     id="defs1">
    <marker
       id="cap"
       orient="auto"
       markerWidth="25"
       markerHeight="14"
       refY="3">
      <path
         style="stroke:none;fill:white;"
         d="m 0 0 v 6 l 9 -3 z"
         id="path1" />
    </marker>
  </defs>
  <g
     id="stage"
     transform="translate(35)">
    <text
       x="223.66701"
       y="39"
       id="text1">Открытый текст</text>
    <path
       id="cells"
       d="m 164,50 h 120 v 30 h -120 z m 30,0 v 30 m 30,0 V 50 m 30,0 v 30" />
    <path
       class="arrow"
       d="m 224,80 v 20"
       id="path2" />
    <text
       x="40.86573"
       y="40.922852"
       id="text2">Ключ</text>
    <path
       class="arrow"
       d="M 41,148 H 101"
       id="path3" />
    <rect
       x="119"
       y="118"
       width="210"
       height="60"
       id="rect3" />
    <text
       x="224"
       y="144"
       id="text3">Процедура</text>
    <text
       x="224"
       y="167"
       id="text4">шифрования</text>
    <path
       class="arrow"
       d="m 224,178 v 20"
       id="path4" />
    <use
       xlink:href="#cells"
       y="166"
       id="use4" />
    <text
       x="224"
       y="272"
       id="text5">Зашифрованный</text>
    <text
       x="224"
       y="295"
       id="text6">текст</text>
    <path
       id="path6"
       d="M -19,50 H 101 V 80 H -19 Z m 30,0 v 30 m 30,0 V 50 m 30,0 v 30" />
	<path
       id="path6"
       d="m 41,80 v 69" />
  </g>

   <text id="key-0" x="31" y="73">     k0</text>
   <text id="key-1" x="61" y="73">     k1</text>
   <text id="key-2" x="91" y="73">     k2</text>
   <text id="key-3" x="121" y="73">    k3</text>

   <text id="txt-0" x="214" y="73">    t0</text>
   <text id="txt-1" x="244" y="73">    t1</text>
   <text id="txt-2" x="274" y="73">    t2</text>
   <text id="txt-3" x="304" y="73">    t3</text>

   <text id="key-4" x="431" y="73">    k4</text>
   <text id="key-5" x="461" y="73">    k5</text>
   <text id="key-6" x="491" y="73">    k6</text>
   <text id="key-7" x="521" y="73">    k7</text>

   <text id="txt-4" x="614" y="73">    t4</text>
   <text id="txt-5" x="644" y="73">    t5</text>
   <text id="txt-6" x="674" y="73">    t6</text>
   <text id="txt-7" x="704" y="73">    t7</text>

   <text id="key-8" x="831" y="73">    k8</text>
   <text id="key-9" x="861" y="73">    k9</text>
   <text id="key-10" x="891" y="73">   k10</text>
   <text id="key-11" x="921" y="73">   k11</text>

   <text id="txt-8" x="1014" y="73">   t8</text>
   <text id="txt-9" x="1044" y="73">   t9</text>
   <text id="txt-10" x="1074" y="73">  t10</text>
   <text id="txt-11" x="1104" y="73">  t11</text>

   <text id="key-12" x="1231" y="73">  k12</text>
   <text id="key-13" x="1261" y="73">  k13</text>
   <text id="key-14" x="1291" y="73">  k14</text>
   <text id="key-15" x="1321" y="73">  k15</text>

   <text id="txt-12" x="1414" y="73">  t12</text>
   <text id="txt-13" x="1444" y="73">  t13</text>
   <text id="txt-14" x="1474" y="73">  t14</text>
   <text id="txt-15" x="1504" y="73">  t15</text>

   <text id="enc-0" x="214" y="239">   e0</text>
   <text id="enc-1" x="244" y="239">   e1</text>
   <text id="enc-2" x="274" y="239">   e2</text>
   <text id="enc-3" x="304" y="239">   e3</text>

   <text id="enc-4" x="614" y="239">   e4</text>
   <text id="enc-5" x="644" y="239">   e5</text>
   <text id="enc-6" x="674" y="239">   e6</text>
   <text id="enc-7" x="704" y="239">   e7</text>

   <text id="enc-8" x="1014" y="239">  e8</text>
   <text id="enc-9" x="1044" y="239">  e9</text>
   <text id="enc-10" x="1074" y="239"> e10</text>
   <text id="enc-11" x="1104" y="239"> e11</text>

   <text id="enc-12" x="1414" y="239"> e12</text>
   <text id="enc-13" x="1444" y="239"> e13</text>
   <text id="enc-14" x="1474" y="239"> e14</text>
   <text id="enc-15" x="1504" y="239"> e15</text>

  	<use xlink:href="#stage" x="400" />
	<use xlink:href="#stage" x="800" />
	<use xlink:href="#stage" x="1200" />
  <metadata
     id="metadata6">
    <rdf:RDF>
      <cc:Work
         rdf:about="">
        <dc:title>Шифрование в режиме электронной кодовой книги</dc:title>
      </cc:Work>
    </rdf:RDF>
  </metadata>
</svg>