<?xml version="1.0" encoding="UTF-8" standalone="no"?>
<!-- Created with Inkscape (http://www.inkscape.org/) -->

<svg
   width="720"
   height="260"
   viewBox="0 0 190.5 68.791665"
   version="1.1"
   id="svg1"
   xml:space="preserve"
   inkscape:version="1.3.2 (091e20e, 2023-11-25, custom)"
   sodipodi:docname="Flag1Source.svg"
   xmlns:inkscape="http://www.inkscape.org/namespaces/inkscape"
   xmlns:sodipodi="http://sodipodi.sourceforge.net/DTD/sodipodi-0.dtd"
   xmlns:xlink="http://www.w3.org/1999/xlink"
   xmlns="http://www.w3.org/2000/svg"
   xmlns:svg="http://www.w3.org/2000/svg"><sodipodi:namedview
     id="namedview1"
     pagecolor="#505050"
     bordercolor="#eeeeee"
     borderopacity="1"
     inkscape:showpageshadow="0"
     inkscape:pageopacity="0"
     inkscape:pagecheckerboard="0"
     inkscape:deskcolor="#505050"
     inkscape:document-units="mm"
     inkscape:zoom="1.4627806"
     inkscape:cx="347.96743"
     inkscape:cy="177.40186"
     inkscape:window-width="1920"
     inkscape:window-height="1017"
     inkscape:window-x="-8"
     inkscape:window-y="-8"
     inkscape:window-maximized="1"
     inkscape:current-layer="layer1" /><defs
     id="defs1" /><g
     inkscape:label="Слой 1"
     inkscape:groupmode="layer"
     id="layer1"><rect
       style="fill:#000000;stroke:#000000;stroke-width:0.52916667;stroke-opacity:1;stroke-dasharray:none"
       id="rect1"
       width="190.23543"
       height="68.527084"
       x="0.1322915"
       y="0.1322915" /><g
       style="fill:#ff0000;stroke-width:2.72727"
       id="g1"
       transform="matrix(2.9104167,0,0,2.9104167,5.2916667,5.2916667)"><path
         fill="#ffffff"
         d="M 0,0 H 30 V 20 H 0 Z"
         id="path1"
         style="stroke-width:2.72727" /><path
         d="m 13,0 h 4 V 20 H 13 Z M 0,8 h 30 v 4 H 0 Z"
         id="path2"
         style="stroke-width:2.72727" /><g
         id="c"
         style="stroke-width:2.72727"><g
           id="b"
           style="stroke-width:2.72727"><path
             id="a"
             d="m 5.7968,1.954 a 5.4,5.4 0 0 0 1.4064,0 10.4,10.4 0 0 0 0,4.092 5.4,5.4 0 0 0 -1.4064,0 10.4,10.4 0 0 0 0,-4.092 z"
             style="stroke-width:2.72727" /><use
             transform="rotate(90,6.5,4)"
             xlink:href="#a"
             id="use2"
             style="stroke-width:2.72727" /></g><use
           x="17"
           xlink:href="#b"
           id="use3"
           style="stroke-width:2.72727" /></g><use
         y="12"
         xlink:href="#c"
         id="use4"
         style="stroke-width:2.72727" /></g><g
       id="g2"
       transform="matrix(29.104167,0,0,29.104167,97.895833,5.2916667)"
       style="stroke-width:4.54546"><rect
         width="3"
         height="2"
         fill="#009246"
         id="rect1-2"
         x="0"
         y="0"
         style="stroke-width:4.54546" /><rect
         width="2"
         height="2"
         x="1"
         fill="#ffffff"
         id="rect2"
         y="0"
         style="stroke-width:4.54546" /><rect
         width="1"
         height="2"
         x="2"
         fill="#ce2b37"
         id="rect3"
         y="0"
         style="stroke-width:4.54546" /></g></g></svg>
